G04 #@! TF.GenerationSoftware,KiCad,Pcbnew,8.0.8*
G04 #@! TF.CreationDate,2025-01-20T20:05:45-08:00*
G04 #@! TF.ProjectId,DonkeyHat,446f6e6b-6579-4486-9174-2e6b69636164,rev?*
G04 #@! TF.SameCoordinates,Original*
G04 #@! TF.FileFunction,Copper,L1,Top*
G04 #@! TF.FilePolarity,Positive*
%FSLAX46Y46*%
G04 Gerber Fmt 4.6, Leading zero omitted, Abs format (unit mm)*
G04 Created by KiCad (PCBNEW 8.0.8) date 2025-01-20 20:05:45*
%MOMM*%
%LPD*%
G01*
G04 APERTURE LIST*
G04 Aperture macros list*
%AMRoundRect*
0 Rectangle with rounded corners*
0 $1 Rounding radius*
0 $2 $3 $4 $5 $6 $7 $8 $9 X,Y pos of 4 corners*
0 Add a 4 corners polygon primitive as box body*
4,1,4,$2,$3,$4,$5,$6,$7,$8,$9,$2,$3,0*
0 Add four circle primitives for the rounded corners*
1,1,$1+$1,$2,$3*
1,1,$1+$1,$4,$5*
1,1,$1+$1,$6,$7*
1,1,$1+$1,$8,$9*
0 Add four rect primitives between the rounded corners*
20,1,$1+$1,$2,$3,$4,$5,0*
20,1,$1+$1,$4,$5,$6,$7,0*
20,1,$1+$1,$6,$7,$8,$9,0*
20,1,$1+$1,$8,$9,$2,$3,0*%
G04 Aperture macros list end*
G04 #@! TA.AperFunction,ComponentPad*
%ADD10R,1.700000X1.700000*%
G04 #@! TD*
G04 #@! TA.AperFunction,ComponentPad*
%ADD11O,1.700000X1.700000*%
G04 #@! TD*
G04 #@! TA.AperFunction,ComponentPad*
%ADD12O,1.500000X2.500000*%
G04 #@! TD*
G04 #@! TA.AperFunction,ComponentPad*
%ADD13O,2.500000X1.500000*%
G04 #@! TD*
G04 #@! TA.AperFunction,SMDPad,CuDef*
%ADD14RoundRect,0.150000X-0.625000X0.150000X-0.625000X-0.150000X0.625000X-0.150000X0.625000X0.150000X0*%
G04 #@! TD*
G04 #@! TA.AperFunction,SMDPad,CuDef*
%ADD15RoundRect,0.250000X-0.650000X0.350000X-0.650000X-0.350000X0.650000X-0.350000X0.650000X0.350000X0*%
G04 #@! TD*
G04 #@! TA.AperFunction,ViaPad*
%ADD16C,0.900000*%
G04 #@! TD*
G04 #@! TA.AperFunction,Conductor*
%ADD17C,0.200000*%
G04 #@! TD*
G04 #@! TA.AperFunction,Conductor*
%ADD18C,0.500000*%
G04 #@! TD*
G04 APERTURE END LIST*
D10*
X108370000Y-48770000D03*
D11*
X108370000Y-46230000D03*
X110910000Y-48770000D03*
X110910000Y-46230000D03*
X113449999Y-48770000D03*
X113450000Y-46230000D03*
X115990000Y-48770000D03*
X115990000Y-46230000D03*
X118530000Y-48770000D03*
X118530000Y-46230000D03*
X121070000Y-48770000D03*
X121070000Y-46230000D03*
X123610000Y-48770000D03*
X123610000Y-46230000D03*
X126150001Y-48770000D03*
X126150000Y-46230000D03*
X128690000Y-48770000D03*
X128690000Y-46230000D03*
X131230000Y-48770000D03*
X131230000Y-46230000D03*
X133770000Y-48770000D03*
X133770000Y-46230000D03*
X136309999Y-48770000D03*
X136310000Y-46230000D03*
X138850000Y-48770000D03*
X138850000Y-46230000D03*
X141390000Y-48770000D03*
X141390000Y-46230000D03*
X143930000Y-48770000D03*
X143930000Y-46230000D03*
X146469999Y-48770000D03*
X146470000Y-46230000D03*
X149010001Y-48770000D03*
X149010000Y-46230000D03*
X151550000Y-48770000D03*
X151550000Y-46230000D03*
X154090000Y-48770000D03*
X154090000Y-46230000D03*
X156630000Y-48770000D03*
X156630000Y-46230000D03*
D12*
X102980000Y-53300000D03*
X105520000Y-53300000D03*
X108060000Y-53300000D03*
X110600000Y-53300000D03*
X113140000Y-53300000D03*
X115680000Y-53300000D03*
X118220000Y-53300000D03*
X120760000Y-53300000D03*
X123300000Y-53300000D03*
D13*
X123800000Y-56340000D03*
X123800000Y-58880000D03*
X123800000Y-61420000D03*
X123800000Y-63960000D03*
X123800000Y-66500000D03*
D12*
X123300000Y-69540000D03*
X120760000Y-69540000D03*
X118220000Y-69540000D03*
X115680000Y-69540000D03*
X113140000Y-69540000D03*
X110600000Y-69540000D03*
X108060000Y-69540000D03*
X105520000Y-69540000D03*
X102980000Y-69540000D03*
D10*
X108382000Y-89459000D03*
D11*
X105842000Y-89459000D03*
X103302001Y-89459000D03*
D10*
X109398000Y-97714000D03*
D11*
X111938000Y-97714000D03*
X114477999Y-97714000D03*
X117018000Y-97714000D03*
D10*
X112700000Y-87100000D03*
D11*
X112700000Y-89640000D03*
D14*
X116850000Y-76600000D03*
X116850000Y-77600000D03*
X116850000Y-78600000D03*
X116850000Y-79600000D03*
D15*
X119375000Y-75300000D03*
X119375000Y-80900000D03*
D10*
X108367000Y-73980000D03*
D11*
X105827000Y-73980000D03*
X103287001Y-73980000D03*
D10*
X108367001Y-77790000D03*
D11*
X105827001Y-77790000D03*
X103287002Y-77790000D03*
D10*
X128829000Y-62027000D03*
D11*
X128829000Y-59487000D03*
X128829000Y-56947000D03*
X128829000Y-54407000D03*
D10*
X109398000Y-93953000D03*
D11*
X111938000Y-93953000D03*
X114477999Y-93953000D03*
X117018000Y-93953000D03*
D10*
X108367000Y-81600000D03*
D11*
X105827000Y-81600000D03*
X103287001Y-81600000D03*
D10*
X112600000Y-81580000D03*
D11*
X112600000Y-79040000D03*
X112600000Y-76500000D03*
X112600000Y-73960000D03*
D10*
X108367000Y-85649000D03*
D11*
X105827000Y-85649000D03*
X103287001Y-85649000D03*
D16*
X114800000Y-76910000D03*
X116590000Y-82460000D03*
X128494669Y-65744669D03*
X130800000Y-65500000D03*
X128100000Y-64500000D03*
X116200000Y-73000000D03*
X126000000Y-67700000D03*
X126300000Y-57400000D03*
X115230382Y-72250000D03*
X112100000Y-71600000D03*
D17*
X120600000Y-79575001D02*
X117624999Y-76600000D01*
X117494346Y-98864000D02*
X120600000Y-95758346D01*
X109921001Y-97953000D02*
X109906001Y-97968000D01*
X120600000Y-95758346D02*
X120600000Y-79575001D01*
X110548000Y-98864000D02*
X117494346Y-98864000D01*
X109398000Y-97714000D02*
X110548000Y-98864000D01*
X103287001Y-89444000D02*
X103302001Y-89459000D01*
X117624999Y-76600000D02*
X116850000Y-76600000D01*
X109906000Y-94285000D02*
X109921001Y-94285000D01*
X127100000Y-67744924D02*
X123344924Y-71500000D01*
X115490000Y-78014999D02*
X116075001Y-78600000D01*
X122220000Y-45753654D02*
X121146346Y-44680000D01*
X109760000Y-47620000D02*
X110910000Y-48770000D01*
X109760000Y-45753654D02*
X109760000Y-47620000D01*
X127100000Y-56136000D02*
X127100000Y-67744924D01*
X128829000Y-54407000D02*
X127100000Y-56136000D01*
X127380654Y-54407000D02*
X122220000Y-49246346D01*
X114500000Y-72060000D02*
X112600000Y-73960000D01*
X122220000Y-49246346D02*
X122220000Y-45753654D01*
X115490000Y-77600000D02*
X115490000Y-78014999D01*
X121146346Y-44680000D02*
X110833654Y-44680000D01*
X128829000Y-54407000D02*
X127380654Y-54407000D01*
X123344924Y-71500000D02*
X114500000Y-71500000D01*
X114500000Y-71500000D02*
X114500000Y-72060000D01*
X110833654Y-44680000D02*
X109760000Y-45753654D01*
X114800000Y-76910000D02*
X115490000Y-77600000D01*
X116075001Y-78600000D02*
X116850000Y-78600000D01*
X114100000Y-75000000D02*
X115400000Y-75000000D01*
X112600000Y-76500000D02*
X114100000Y-75000000D01*
X132100000Y-66000000D02*
X132100000Y-60218000D01*
X112600000Y-76500000D02*
X115700000Y-79600000D01*
X130600000Y-66400000D02*
X131700000Y-66400000D01*
X131700000Y-66400000D02*
X132100000Y-66000000D01*
X118000000Y-72400000D02*
X124600000Y-72400000D01*
X115400000Y-75000000D02*
X118000000Y-72400000D01*
X115700000Y-79600000D02*
X116850000Y-79600000D01*
X124600000Y-72400000D02*
X130600000Y-66400000D01*
X132100000Y-60218000D02*
X128829000Y-56947000D01*
X111560000Y-50320000D02*
X110380000Y-51500000D01*
X119680000Y-49246346D02*
X119680000Y-45680000D01*
X110380000Y-51500000D02*
X107820000Y-51500000D01*
X111560000Y-50320000D02*
X118606346Y-50320000D01*
X107820000Y-51500000D02*
X105520000Y-53800000D01*
X117140000Y-45080000D02*
X115990000Y-46230000D01*
X118606346Y-50320000D02*
X119680000Y-49246346D01*
X119080000Y-45080000D02*
X117140000Y-45080000D01*
X119680000Y-45680000D02*
X119080000Y-45080000D01*
X104100000Y-51300000D02*
X104100000Y-52680000D01*
X109420000Y-49920000D02*
X108240000Y-51100000D01*
X109420000Y-49920000D02*
X116466346Y-49920000D01*
X117380000Y-49006346D02*
X117380000Y-47380000D01*
X117380000Y-47380000D02*
X118530000Y-46230000D01*
X108240000Y-51100000D02*
X104300000Y-51100000D01*
X116466346Y-49920000D02*
X117380000Y-49006346D01*
X104300000Y-51100000D02*
X104100000Y-51300000D01*
X104100000Y-52680000D02*
X102980000Y-53800000D01*
D18*
X102505736Y-69140000D02*
X102900000Y-69140000D01*
X106282944Y-72680000D02*
X109667000Y-72680000D01*
X101010000Y-67644264D02*
X102505736Y-69140000D01*
X109667000Y-72680000D02*
X109667000Y-84067000D01*
X102900000Y-69297056D02*
X106282944Y-72680000D01*
X102900000Y-69140000D02*
X102900000Y-69297056D01*
X101010000Y-52387919D02*
X101010000Y-67644264D01*
X108370000Y-46230000D02*
X107167919Y-46230000D01*
X109667000Y-84067000D02*
X112700000Y-87100000D01*
X107167919Y-46230000D02*
X101010000Y-52387919D01*
D17*
X116590000Y-82460000D02*
X118055552Y-82460000D01*
X117624999Y-77600000D02*
X116850000Y-77600000D01*
X116197999Y-82067999D02*
X115627999Y-82067999D01*
X118055552Y-78030553D02*
X117624999Y-77600000D01*
X118055552Y-82460000D02*
X118055552Y-78030553D01*
X115627999Y-82067999D02*
X115627999Y-90263001D01*
X116590000Y-82460000D02*
X116197999Y-82067999D01*
X112600000Y-79040000D02*
X115627999Y-82067999D01*
X111938000Y-93953000D02*
X111938000Y-97714000D01*
X115627999Y-90263001D02*
X111938000Y-93953000D01*
X128739338Y-65500000D02*
X130800000Y-65500000D01*
X128494669Y-65744669D02*
X128739338Y-65500000D01*
X117300000Y-72000000D02*
X116300000Y-73000000D01*
X127500000Y-65100000D02*
X127500000Y-67910609D01*
X116300000Y-73000000D02*
X116200000Y-73000000D01*
X128100000Y-64500000D02*
X127500000Y-65100000D01*
X123410609Y-72000000D02*
X117300000Y-72000000D01*
X127500000Y-67910609D02*
X123410609Y-72000000D01*
X126000000Y-67700000D02*
X126000000Y-67800000D01*
X117018000Y-93182000D02*
X117018000Y-93953000D01*
X126300000Y-67500000D02*
X126100000Y-67700000D01*
X126000000Y-67800000D02*
X126100000Y-67700000D01*
X126100000Y-67700000D02*
X126000000Y-67700000D01*
X126300000Y-57400000D02*
X126300000Y-67500000D01*
X115230382Y-73269618D02*
X113150000Y-75350000D01*
X107200000Y-78957001D02*
X108367001Y-77790000D01*
X113150000Y-75350000D02*
X112050000Y-75350000D01*
X115230382Y-72250000D02*
X115230382Y-73269618D01*
X113400000Y-91200000D02*
X107600000Y-91200000D01*
X107200000Y-90800000D02*
X107200000Y-78957001D01*
X111450000Y-75950000D02*
X111450000Y-82950000D01*
X114300000Y-90300000D02*
X113400000Y-91200000D01*
X107600000Y-91200000D02*
X107200000Y-90800000D01*
X112050000Y-75350000D02*
X111450000Y-75950000D01*
X111450000Y-82950000D02*
X114300000Y-85800000D01*
X114300000Y-85800000D02*
X114300000Y-90300000D01*
X109894817Y-72130000D02*
X110217000Y-72452183D01*
X110217000Y-72452183D02*
X110217000Y-83317000D01*
X111200000Y-84300000D02*
X112200000Y-84300000D01*
X110165076Y-67990000D02*
X109400000Y-68755076D01*
X121672132Y-67990000D02*
X110165076Y-67990000D01*
X123300000Y-58880000D02*
X122250000Y-59930000D01*
X113166346Y-90800000D02*
X109723000Y-90800000D01*
X110217000Y-83317000D02*
X111200000Y-84300000D01*
X109723000Y-90800000D02*
X108382000Y-89459000D01*
X122250000Y-67412132D02*
X121672132Y-67990000D01*
X113900000Y-86000000D02*
X113900000Y-90066346D01*
X112200000Y-84300000D02*
X113900000Y-86000000D01*
X109400000Y-72130000D02*
X109894817Y-72130000D01*
X122250000Y-59930000D02*
X122250000Y-67412132D01*
X113900000Y-90066346D02*
X113166346Y-90800000D01*
X109400000Y-68755076D02*
X109400000Y-72130000D01*
X123300000Y-61420000D02*
X125350000Y-63470000D01*
X122237818Y-67990000D02*
X122237818Y-70047106D01*
X122237818Y-70047106D02*
X121184924Y-71100000D01*
X125350000Y-66950000D02*
X124310000Y-67990000D01*
X125350000Y-63470000D02*
X125350000Y-66950000D01*
X121184924Y-71100000D02*
X112600000Y-71100000D01*
X112100000Y-71600000D02*
X112200000Y-71500000D01*
X112600000Y-71100000D02*
X112100000Y-71600000D01*
X124310000Y-67990000D02*
X122237818Y-67990000D01*
D18*
X105827000Y-89444000D02*
X105842000Y-89459000D01*
M02*
