M48
; DRILL file {KiCad 8.0.8} date 2025-01-20T19:45:11-0800
; FORMAT={-:-/ absolute / inch / decimal}
; #@! TF.CreationDate,2025-01-20T19:45:11-08:00
; #@! TF.GenerationSoftware,Kicad,Pcbnew,8.0.8
; #@! TF.FileFunction,Plated,1,2,PTH
FMAT,2
INCH
; #@! TA.AperFunction,Plated,PTH,ViaDrill
T1C0.0236
; #@! TA.AperFunction,Plated,PTH,ComponentDrill
T2C0.0394
%
G90
G05
T1
X4.4134Y-2.8189
X4.5197Y-3.028
X4.5366Y-2.8445
X4.5748Y-2.874
X4.5902Y-3.2465
X4.9606Y-2.6654
X4.9724Y-2.2598
X5.0433Y-2.5394
X5.0588Y-2.5884
X5.1496Y-2.5787
T2
X4.0543Y-2.1181
X4.0543Y-2.7181
X4.0664Y-2.9126
X4.0664Y-3.2126
X4.0664Y-3.372
X4.0664Y-3.0626
X4.067Y-3.522
X4.1543Y-2.1181
X4.1543Y-2.7181
X4.1664Y-2.9126
X4.1664Y-3.2126
X4.1664Y-3.372
X4.1664Y-3.0626
X4.167Y-3.522
X4.2543Y-2.1181
X4.2543Y-2.7181
X4.2664Y-2.9126
X4.2664Y-3.2126
X4.2664Y-3.372
X4.2664Y-3.0626
X4.2665Y-1.8201
X4.2665Y-1.9201
X4.267Y-3.522
X4.307Y-3.6989
X4.307Y-3.847
X4.3543Y-2.1181
X4.3543Y-2.7181
X4.3665Y-1.8201
X4.3665Y-1.9201
X4.407Y-3.6989
X4.407Y-3.847
X4.4331Y-2.9118
X4.4331Y-3.0118
X4.4331Y-3.1118
X4.4331Y-3.2118
X4.437Y-3.4291
X4.437Y-3.5291
X4.4543Y-2.1181
X4.4543Y-2.7181
X4.4665Y-1.9201
X4.4665Y-1.8201
X4.507Y-3.6989
X4.507Y-3.847
X4.5543Y-2.1181
X4.5543Y-2.7181
X4.5665Y-1.8201
X4.5665Y-1.9201
X4.607Y-3.6989
X4.607Y-3.847
X4.6543Y-2.1181
X4.6543Y-2.7181
X4.6665Y-1.8201
X4.6665Y-1.9201
X4.7543Y-2.1181
X4.7543Y-2.7181
X4.7665Y-1.8201
X4.7665Y-1.9201
X4.8543Y-2.1181
X4.8543Y-2.2181
X4.8543Y-2.3181
X4.8543Y-2.4181
X4.8543Y-2.5181
X4.8543Y-2.6181
X4.8543Y-2.7181
X4.8665Y-1.8201
X4.8665Y-1.9201
X4.9665Y-1.8201
X4.9665Y-1.9201
X5.0665Y-1.8201
X5.0665Y-1.9201
X5.072Y-2.142
X5.072Y-2.242
X5.072Y-2.342
X5.072Y-2.442
X5.1665Y-1.8201
X5.1665Y-1.9201
X5.2665Y-1.8201
X5.2665Y-1.9201
X5.3665Y-1.9201
X5.3665Y-1.8201
X5.4665Y-1.8201
X5.4665Y-1.9201
X5.5665Y-1.8201
X5.5665Y-1.9201
X5.6665Y-1.8201
X5.6665Y-1.9201
X5.7665Y-1.9201
X5.7665Y-1.8201
X5.8665Y-1.8201
X5.8665Y-1.9201
X5.9665Y-1.8201
X5.9665Y-1.9201
X6.0665Y-1.8201
X6.0665Y-1.9201
X6.1665Y-1.8201
X6.1665Y-1.9201
M30
