G04 #@! TF.GenerationSoftware,KiCad,Pcbnew,8.0.2*
G04 #@! TF.CreationDate,2024-07-07T11:48:23-07:00*
G04 #@! TF.ProjectId,DonkeyHat,446f6e6b-6579-4486-9174-2e6b69636164,rev?*
G04 #@! TF.SameCoordinates,Original*
G04 #@! TF.FileFunction,Legend,Top*
G04 #@! TF.FilePolarity,Positive*
%FSLAX46Y46*%
G04 Gerber Fmt 4.6, Leading zero omitted, Abs format (unit mm)*
G04 Created by KiCad (PCBNEW 8.0.2) date 2024-07-07 11:48:23*
%MOMM*%
%LPD*%
G01*
G04 APERTURE LIST*
%ADD10C,0.200000*%
%ADD11C,0.150000*%
%ADD12C,0.250000*%
%ADD13C,0.120000*%
G04 APERTURE END LIST*
D10*
X115072695Y-84326945D02*
X114272695Y-84326945D01*
X114348885Y-83984089D02*
X114310790Y-83945993D01*
X114310790Y-83945993D02*
X114272695Y-83869803D01*
X114272695Y-83869803D02*
X114272695Y-83679327D01*
X114272695Y-83679327D02*
X114310790Y-83603136D01*
X114310790Y-83603136D02*
X114348885Y-83565041D01*
X114348885Y-83565041D02*
X114425076Y-83526946D01*
X114425076Y-83526946D02*
X114501266Y-83526946D01*
X114501266Y-83526946D02*
X114615552Y-83565041D01*
X114615552Y-83565041D02*
X115072695Y-84022184D01*
X115072695Y-84022184D02*
X115072695Y-83526946D01*
X114996504Y-82726945D02*
X115034600Y-82765041D01*
X115034600Y-82765041D02*
X115072695Y-82879326D01*
X115072695Y-82879326D02*
X115072695Y-82955517D01*
X115072695Y-82955517D02*
X115034600Y-83069803D01*
X115034600Y-83069803D02*
X114958409Y-83145993D01*
X114958409Y-83145993D02*
X114882219Y-83184088D01*
X114882219Y-83184088D02*
X114729838Y-83222184D01*
X114729838Y-83222184D02*
X114615552Y-83222184D01*
X114615552Y-83222184D02*
X114463171Y-83184088D01*
X114463171Y-83184088D02*
X114386980Y-83145993D01*
X114386980Y-83145993D02*
X114310790Y-83069803D01*
X114310790Y-83069803D02*
X114272695Y-82955517D01*
X114272695Y-82955517D02*
X114272695Y-82879326D01*
X114272695Y-82879326D02*
X114310790Y-82765041D01*
X114310790Y-82765041D02*
X114348885Y-82726945D01*
X114767933Y-81774564D02*
X114767933Y-81165041D01*
X114767933Y-79565040D02*
X114767933Y-78955517D01*
X115072695Y-79260278D02*
X114463171Y-79260278D01*
X115034600Y-77393612D02*
X115072695Y-77279326D01*
X115072695Y-77279326D02*
X115072695Y-77088850D01*
X115072695Y-77088850D02*
X115034600Y-77012659D01*
X115034600Y-77012659D02*
X114996504Y-76974564D01*
X114996504Y-76974564D02*
X114920314Y-76936469D01*
X114920314Y-76936469D02*
X114844123Y-76936469D01*
X114844123Y-76936469D02*
X114767933Y-76974564D01*
X114767933Y-76974564D02*
X114729838Y-77012659D01*
X114729838Y-77012659D02*
X114691742Y-77088850D01*
X114691742Y-77088850D02*
X114653647Y-77241231D01*
X114653647Y-77241231D02*
X114615552Y-77317421D01*
X114615552Y-77317421D02*
X114577457Y-77355516D01*
X114577457Y-77355516D02*
X114501266Y-77393612D01*
X114501266Y-77393612D02*
X114425076Y-77393612D01*
X114425076Y-77393612D02*
X114348885Y-77355516D01*
X114348885Y-77355516D02*
X114310790Y-77317421D01*
X114310790Y-77317421D02*
X114272695Y-77241231D01*
X114272695Y-77241231D02*
X114272695Y-77050754D01*
X114272695Y-77050754D02*
X114310790Y-76936469D01*
X114996504Y-76136468D02*
X115034600Y-76174564D01*
X115034600Y-76174564D02*
X115072695Y-76288849D01*
X115072695Y-76288849D02*
X115072695Y-76365040D01*
X115072695Y-76365040D02*
X115034600Y-76479326D01*
X115034600Y-76479326D02*
X114958409Y-76555516D01*
X114958409Y-76555516D02*
X114882219Y-76593611D01*
X114882219Y-76593611D02*
X114729838Y-76631707D01*
X114729838Y-76631707D02*
X114615552Y-76631707D01*
X114615552Y-76631707D02*
X114463171Y-76593611D01*
X114463171Y-76593611D02*
X114386980Y-76555516D01*
X114386980Y-76555516D02*
X114310790Y-76479326D01*
X114310790Y-76479326D02*
X114272695Y-76365040D01*
X114272695Y-76365040D02*
X114272695Y-76288849D01*
X114272695Y-76288849D02*
X114310790Y-76174564D01*
X114310790Y-76174564D02*
X114348885Y-76136468D01*
X115072695Y-75412659D02*
X115072695Y-75793611D01*
X115072695Y-75793611D02*
X114272695Y-75793611D01*
X115034600Y-74574564D02*
X115072695Y-74460278D01*
X115072695Y-74460278D02*
X115072695Y-74269802D01*
X115072695Y-74269802D02*
X115034600Y-74193611D01*
X115034600Y-74193611D02*
X114996504Y-74155516D01*
X114996504Y-74155516D02*
X114920314Y-74117421D01*
X114920314Y-74117421D02*
X114844123Y-74117421D01*
X114844123Y-74117421D02*
X114767933Y-74155516D01*
X114767933Y-74155516D02*
X114729838Y-74193611D01*
X114729838Y-74193611D02*
X114691742Y-74269802D01*
X114691742Y-74269802D02*
X114653647Y-74422183D01*
X114653647Y-74422183D02*
X114615552Y-74498373D01*
X114615552Y-74498373D02*
X114577457Y-74536468D01*
X114577457Y-74536468D02*
X114501266Y-74574564D01*
X114501266Y-74574564D02*
X114425076Y-74574564D01*
X114425076Y-74574564D02*
X114348885Y-74536468D01*
X114348885Y-74536468D02*
X114310790Y-74498373D01*
X114310790Y-74498373D02*
X114272695Y-74422183D01*
X114272695Y-74422183D02*
X114272695Y-74231706D01*
X114272695Y-74231706D02*
X114310790Y-74117421D01*
X115072695Y-73774563D02*
X114272695Y-73774563D01*
X114272695Y-73774563D02*
X114272695Y-73584087D01*
X114272695Y-73584087D02*
X114310790Y-73469801D01*
X114310790Y-73469801D02*
X114386980Y-73393611D01*
X114386980Y-73393611D02*
X114463171Y-73355516D01*
X114463171Y-73355516D02*
X114615552Y-73317420D01*
X114615552Y-73317420D02*
X114729838Y-73317420D01*
X114729838Y-73317420D02*
X114882219Y-73355516D01*
X114882219Y-73355516D02*
X114958409Y-73393611D01*
X114958409Y-73393611D02*
X115034600Y-73469801D01*
X115034600Y-73469801D02*
X115072695Y-73584087D01*
X115072695Y-73584087D02*
X115072695Y-73774563D01*
X114844123Y-73012659D02*
X114844123Y-72631706D01*
X115072695Y-73088849D02*
X114272695Y-72822182D01*
X114272695Y-72822182D02*
X115072695Y-72555516D01*
D11*
X107353990Y-93136779D02*
X107353990Y-93470112D01*
X106830180Y-93612969D02*
X106830180Y-93136779D01*
X106830180Y-93136779D02*
X107830180Y-93136779D01*
X107830180Y-93136779D02*
X107830180Y-93612969D01*
X107496847Y-94041541D02*
X106830180Y-94041541D01*
X107401609Y-94041541D02*
X107449228Y-94089160D01*
X107449228Y-94089160D02*
X107496847Y-94184398D01*
X107496847Y-94184398D02*
X107496847Y-94327255D01*
X107496847Y-94327255D02*
X107449228Y-94422493D01*
X107449228Y-94422493D02*
X107353990Y-94470112D01*
X107353990Y-94470112D02*
X106830180Y-94470112D01*
X106877800Y-95374874D02*
X106830180Y-95279636D01*
X106830180Y-95279636D02*
X106830180Y-95089160D01*
X106830180Y-95089160D02*
X106877800Y-94993922D01*
X106877800Y-94993922D02*
X106925419Y-94946303D01*
X106925419Y-94946303D02*
X107020657Y-94898684D01*
X107020657Y-94898684D02*
X107306371Y-94898684D01*
X107306371Y-94898684D02*
X107401609Y-94946303D01*
X107401609Y-94946303D02*
X107449228Y-94993922D01*
X107449228Y-94993922D02*
X107496847Y-95089160D01*
X107496847Y-95089160D02*
X107496847Y-95279636D01*
X107496847Y-95279636D02*
X107449228Y-95374874D01*
X106830180Y-95946303D02*
X106877800Y-95851065D01*
X106877800Y-95851065D02*
X106925419Y-95803446D01*
X106925419Y-95803446D02*
X107020657Y-95755827D01*
X107020657Y-95755827D02*
X107306371Y-95755827D01*
X107306371Y-95755827D02*
X107401609Y-95803446D01*
X107401609Y-95803446D02*
X107449228Y-95851065D01*
X107449228Y-95851065D02*
X107496847Y-95946303D01*
X107496847Y-95946303D02*
X107496847Y-96089160D01*
X107496847Y-96089160D02*
X107449228Y-96184398D01*
X107449228Y-96184398D02*
X107401609Y-96232017D01*
X107401609Y-96232017D02*
X107306371Y-96279636D01*
X107306371Y-96279636D02*
X107020657Y-96279636D01*
X107020657Y-96279636D02*
X106925419Y-96232017D01*
X106925419Y-96232017D02*
X106877800Y-96184398D01*
X106877800Y-96184398D02*
X106830180Y-96089160D01*
X106830180Y-96089160D02*
X106830180Y-95946303D01*
X106830180Y-97136779D02*
X107830180Y-97136779D01*
X106877800Y-97136779D02*
X106830180Y-97041541D01*
X106830180Y-97041541D02*
X106830180Y-96851065D01*
X106830180Y-96851065D02*
X106877800Y-96755827D01*
X106877800Y-96755827D02*
X106925419Y-96708208D01*
X106925419Y-96708208D02*
X107020657Y-96660589D01*
X107020657Y-96660589D02*
X107306371Y-96660589D01*
X107306371Y-96660589D02*
X107401609Y-96708208D01*
X107401609Y-96708208D02*
X107449228Y-96755827D01*
X107449228Y-96755827D02*
X107496847Y-96851065D01*
X107496847Y-96851065D02*
X107496847Y-97041541D01*
X107496847Y-97041541D02*
X107449228Y-97136779D01*
X106877800Y-97993922D02*
X106830180Y-97898684D01*
X106830180Y-97898684D02*
X106830180Y-97708208D01*
X106830180Y-97708208D02*
X106877800Y-97612970D01*
X106877800Y-97612970D02*
X106973038Y-97565351D01*
X106973038Y-97565351D02*
X107353990Y-97565351D01*
X107353990Y-97565351D02*
X107449228Y-97612970D01*
X107449228Y-97612970D02*
X107496847Y-97708208D01*
X107496847Y-97708208D02*
X107496847Y-97898684D01*
X107496847Y-97898684D02*
X107449228Y-97993922D01*
X107449228Y-97993922D02*
X107353990Y-98041541D01*
X107353990Y-98041541D02*
X107258752Y-98041541D01*
X107258752Y-98041541D02*
X107163514Y-97565351D01*
X106830180Y-98470113D02*
X107496847Y-98470113D01*
X107306371Y-98470113D02*
X107401609Y-98517732D01*
X107401609Y-98517732D02*
X107449228Y-98565351D01*
X107449228Y-98565351D02*
X107496847Y-98660589D01*
X107496847Y-98660589D02*
X107496847Y-98755827D01*
X106877800Y-99041542D02*
X106830180Y-99136780D01*
X106830180Y-99136780D02*
X106830180Y-99327256D01*
X106830180Y-99327256D02*
X106877800Y-99422494D01*
X106877800Y-99422494D02*
X106973038Y-99470113D01*
X106973038Y-99470113D02*
X107020657Y-99470113D01*
X107020657Y-99470113D02*
X107115895Y-99422494D01*
X107115895Y-99422494D02*
X107163514Y-99327256D01*
X107163514Y-99327256D02*
X107163514Y-99184399D01*
X107163514Y-99184399D02*
X107211133Y-99089161D01*
X107211133Y-99089161D02*
X107306371Y-99041542D01*
X107306371Y-99041542D02*
X107353990Y-99041542D01*
X107353990Y-99041542D02*
X107449228Y-99089161D01*
X107449228Y-99089161D02*
X107496847Y-99184399D01*
X107496847Y-99184399D02*
X107496847Y-99327256D01*
X107496847Y-99327256D02*
X107449228Y-99422494D01*
X111470111Y-91939200D02*
X112155826Y-91939200D01*
X111812968Y-92282057D02*
X111812968Y-91596342D01*
X113912968Y-92239200D02*
X114041540Y-92282057D01*
X114041540Y-92282057D02*
X114255825Y-92282057D01*
X114255825Y-92282057D02*
X114341540Y-92239200D01*
X114341540Y-92239200D02*
X114384397Y-92196342D01*
X114384397Y-92196342D02*
X114427254Y-92110628D01*
X114427254Y-92110628D02*
X114427254Y-92024914D01*
X114427254Y-92024914D02*
X114384397Y-91939200D01*
X114384397Y-91939200D02*
X114341540Y-91896342D01*
X114341540Y-91896342D02*
X114255825Y-91853485D01*
X114255825Y-91853485D02*
X114084397Y-91810628D01*
X114084397Y-91810628D02*
X113998682Y-91767771D01*
X113998682Y-91767771D02*
X113955825Y-91724914D01*
X113955825Y-91724914D02*
X113912968Y-91639200D01*
X113912968Y-91639200D02*
X113912968Y-91553485D01*
X113912968Y-91553485D02*
X113955825Y-91467771D01*
X113955825Y-91467771D02*
X113998682Y-91424914D01*
X113998682Y-91424914D02*
X114084397Y-91382057D01*
X114084397Y-91382057D02*
X114298682Y-91382057D01*
X114298682Y-91382057D02*
X114427254Y-91424914D01*
X115284397Y-92282057D02*
X114770111Y-92282057D01*
X115027254Y-92282057D02*
X115027254Y-91382057D01*
X115027254Y-91382057D02*
X114941540Y-91510628D01*
X114941540Y-91510628D02*
X114855825Y-91596342D01*
X114855825Y-91596342D02*
X114770111Y-91639200D01*
X116312968Y-92239200D02*
X116441540Y-92282057D01*
X116441540Y-92282057D02*
X116655825Y-92282057D01*
X116655825Y-92282057D02*
X116741540Y-92239200D01*
X116741540Y-92239200D02*
X116784397Y-92196342D01*
X116784397Y-92196342D02*
X116827254Y-92110628D01*
X116827254Y-92110628D02*
X116827254Y-92024914D01*
X116827254Y-92024914D02*
X116784397Y-91939200D01*
X116784397Y-91939200D02*
X116741540Y-91896342D01*
X116741540Y-91896342D02*
X116655825Y-91853485D01*
X116655825Y-91853485D02*
X116484397Y-91810628D01*
X116484397Y-91810628D02*
X116398682Y-91767771D01*
X116398682Y-91767771D02*
X116355825Y-91724914D01*
X116355825Y-91724914D02*
X116312968Y-91639200D01*
X116312968Y-91639200D02*
X116312968Y-91553485D01*
X116312968Y-91553485D02*
X116355825Y-91467771D01*
X116355825Y-91467771D02*
X116398682Y-91424914D01*
X116398682Y-91424914D02*
X116484397Y-91382057D01*
X116484397Y-91382057D02*
X116698682Y-91382057D01*
X116698682Y-91382057D02*
X116827254Y-91424914D01*
X117170111Y-91467771D02*
X117212968Y-91424914D01*
X117212968Y-91424914D02*
X117298683Y-91382057D01*
X117298683Y-91382057D02*
X117512968Y-91382057D01*
X117512968Y-91382057D02*
X117598683Y-91424914D01*
X117598683Y-91424914D02*
X117641540Y-91467771D01*
X117641540Y-91467771D02*
X117684397Y-91553485D01*
X117684397Y-91553485D02*
X117684397Y-91639200D01*
X117684397Y-91639200D02*
X117641540Y-91767771D01*
X117641540Y-91767771D02*
X117127254Y-92282057D01*
X117127254Y-92282057D02*
X117684397Y-92282057D01*
D12*
X108408050Y-91293000D02*
X108265193Y-91245380D01*
X108265193Y-91245380D02*
X108027098Y-91245380D01*
X108027098Y-91245380D02*
X107931860Y-91293000D01*
X107931860Y-91293000D02*
X107884241Y-91340619D01*
X107884241Y-91340619D02*
X107836622Y-91435857D01*
X107836622Y-91435857D02*
X107836622Y-91531095D01*
X107836622Y-91531095D02*
X107884241Y-91626333D01*
X107884241Y-91626333D02*
X107931860Y-91673952D01*
X107931860Y-91673952D02*
X108027098Y-91721571D01*
X108027098Y-91721571D02*
X108217574Y-91769190D01*
X108217574Y-91769190D02*
X108312812Y-91816809D01*
X108312812Y-91816809D02*
X108360431Y-91864428D01*
X108360431Y-91864428D02*
X108408050Y-91959666D01*
X108408050Y-91959666D02*
X108408050Y-92054904D01*
X108408050Y-92054904D02*
X108360431Y-92150142D01*
X108360431Y-92150142D02*
X108312812Y-92197761D01*
X108312812Y-92197761D02*
X108217574Y-92245380D01*
X108217574Y-92245380D02*
X107979479Y-92245380D01*
X107979479Y-92245380D02*
X107836622Y-92197761D01*
X105884240Y-91626333D02*
X105122336Y-91626333D01*
X105503288Y-91245380D02*
X105503288Y-92007285D01*
X103122335Y-91626333D02*
X102360431Y-91626333D01*
D11*
X100477800Y-83789160D02*
X100430180Y-83932017D01*
X100430180Y-83932017D02*
X100430180Y-84170112D01*
X100430180Y-84170112D02*
X100477800Y-84265350D01*
X100477800Y-84265350D02*
X100525419Y-84312969D01*
X100525419Y-84312969D02*
X100620657Y-84360588D01*
X100620657Y-84360588D02*
X100715895Y-84360588D01*
X100715895Y-84360588D02*
X100811133Y-84312969D01*
X100811133Y-84312969D02*
X100858752Y-84265350D01*
X100858752Y-84265350D02*
X100906371Y-84170112D01*
X100906371Y-84170112D02*
X100953990Y-83979636D01*
X100953990Y-83979636D02*
X101001609Y-83884398D01*
X101001609Y-83884398D02*
X101049228Y-83836779D01*
X101049228Y-83836779D02*
X101144466Y-83789160D01*
X101144466Y-83789160D02*
X101239704Y-83789160D01*
X101239704Y-83789160D02*
X101334942Y-83836779D01*
X101334942Y-83836779D02*
X101382561Y-83884398D01*
X101382561Y-83884398D02*
X101430180Y-83979636D01*
X101430180Y-83979636D02*
X101430180Y-84217731D01*
X101430180Y-84217731D02*
X101382561Y-84360588D01*
X101096847Y-84646303D02*
X101096847Y-85027255D01*
X101430180Y-84789160D02*
X100573038Y-84789160D01*
X100573038Y-84789160D02*
X100477800Y-84836779D01*
X100477800Y-84836779D02*
X100430180Y-84932017D01*
X100430180Y-84932017D02*
X100430180Y-85027255D01*
X100477800Y-85741541D02*
X100430180Y-85646303D01*
X100430180Y-85646303D02*
X100430180Y-85455827D01*
X100430180Y-85455827D02*
X100477800Y-85360589D01*
X100477800Y-85360589D02*
X100573038Y-85312970D01*
X100573038Y-85312970D02*
X100953990Y-85312970D01*
X100953990Y-85312970D02*
X101049228Y-85360589D01*
X101049228Y-85360589D02*
X101096847Y-85455827D01*
X101096847Y-85455827D02*
X101096847Y-85646303D01*
X101096847Y-85646303D02*
X101049228Y-85741541D01*
X101049228Y-85741541D02*
X100953990Y-85789160D01*
X100953990Y-85789160D02*
X100858752Y-85789160D01*
X100858752Y-85789160D02*
X100763514Y-85312970D01*
X100477800Y-86598684D02*
X100430180Y-86503446D01*
X100430180Y-86503446D02*
X100430180Y-86312970D01*
X100430180Y-86312970D02*
X100477800Y-86217732D01*
X100477800Y-86217732D02*
X100573038Y-86170113D01*
X100573038Y-86170113D02*
X100953990Y-86170113D01*
X100953990Y-86170113D02*
X101049228Y-86217732D01*
X101049228Y-86217732D02*
X101096847Y-86312970D01*
X101096847Y-86312970D02*
X101096847Y-86503446D01*
X101096847Y-86503446D02*
X101049228Y-86598684D01*
X101049228Y-86598684D02*
X100953990Y-86646303D01*
X100953990Y-86646303D02*
X100858752Y-86646303D01*
X100858752Y-86646303D02*
X100763514Y-86170113D01*
X100430180Y-87074875D02*
X101096847Y-87074875D01*
X100906371Y-87074875D02*
X101001609Y-87122494D01*
X101001609Y-87122494D02*
X101049228Y-87170113D01*
X101049228Y-87170113D02*
X101096847Y-87265351D01*
X101096847Y-87265351D02*
X101096847Y-87360589D01*
X101430180Y-88293922D02*
X101430180Y-88865350D01*
X100430180Y-88579636D02*
X101430180Y-88579636D01*
X100430180Y-89198684D02*
X101430180Y-89198684D01*
X100430180Y-89627255D02*
X100953990Y-89627255D01*
X100953990Y-89627255D02*
X101049228Y-89579636D01*
X101049228Y-89579636D02*
X101096847Y-89484398D01*
X101096847Y-89484398D02*
X101096847Y-89341541D01*
X101096847Y-89341541D02*
X101049228Y-89246303D01*
X101049228Y-89246303D02*
X101001609Y-89198684D01*
X100430180Y-90103446D02*
X101096847Y-90103446D01*
X100906371Y-90103446D02*
X101001609Y-90151065D01*
X101001609Y-90151065D02*
X101049228Y-90198684D01*
X101049228Y-90198684D02*
X101096847Y-90293922D01*
X101096847Y-90293922D02*
X101096847Y-90389160D01*
X100430180Y-90865351D02*
X100477800Y-90770113D01*
X100477800Y-90770113D02*
X100525419Y-90722494D01*
X100525419Y-90722494D02*
X100620657Y-90674875D01*
X100620657Y-90674875D02*
X100906371Y-90674875D01*
X100906371Y-90674875D02*
X101001609Y-90722494D01*
X101001609Y-90722494D02*
X101049228Y-90770113D01*
X101049228Y-90770113D02*
X101096847Y-90865351D01*
X101096847Y-90865351D02*
X101096847Y-91008208D01*
X101096847Y-91008208D02*
X101049228Y-91103446D01*
X101049228Y-91103446D02*
X101001609Y-91151065D01*
X101001609Y-91151065D02*
X100906371Y-91198684D01*
X100906371Y-91198684D02*
X100620657Y-91198684D01*
X100620657Y-91198684D02*
X100525419Y-91151065D01*
X100525419Y-91151065D02*
X100477800Y-91103446D01*
X100477800Y-91103446D02*
X100430180Y-91008208D01*
X100430180Y-91008208D02*
X100430180Y-90865351D01*
X101096847Y-91484399D02*
X101096847Y-91865351D01*
X101430180Y-91627256D02*
X100573038Y-91627256D01*
X100573038Y-91627256D02*
X100477800Y-91674875D01*
X100477800Y-91674875D02*
X100430180Y-91770113D01*
X100430180Y-91770113D02*
X100430180Y-91865351D01*
X114956533Y-90210839D02*
X114956533Y-89601316D01*
X114461295Y-88229887D02*
X114461295Y-88610839D01*
X114461295Y-88610839D02*
X114842247Y-88648935D01*
X114842247Y-88648935D02*
X114804152Y-88610839D01*
X114804152Y-88610839D02*
X114766057Y-88534649D01*
X114766057Y-88534649D02*
X114766057Y-88344173D01*
X114766057Y-88344173D02*
X114804152Y-88267982D01*
X114804152Y-88267982D02*
X114842247Y-88229887D01*
X114842247Y-88229887D02*
X114918438Y-88191792D01*
X114918438Y-88191792D02*
X115108914Y-88191792D01*
X115108914Y-88191792D02*
X115185104Y-88229887D01*
X115185104Y-88229887D02*
X115223200Y-88267982D01*
X115223200Y-88267982D02*
X115261295Y-88344173D01*
X115261295Y-88344173D02*
X115261295Y-88534649D01*
X115261295Y-88534649D02*
X115223200Y-88610839D01*
X115223200Y-88610839D02*
X115185104Y-88648935D01*
X114461295Y-87963220D02*
X115261295Y-87696553D01*
X115261295Y-87696553D02*
X114461295Y-87429887D01*
X114956533Y-86553696D02*
X114956533Y-85944173D01*
X115261295Y-86248934D02*
X114651771Y-86248934D01*
X100430180Y-80732779D02*
X101430180Y-80732779D01*
X101096847Y-81208969D02*
X100430180Y-81208969D01*
X101001609Y-81208969D02*
X101049228Y-81256588D01*
X101049228Y-81256588D02*
X101096847Y-81351826D01*
X101096847Y-81351826D02*
X101096847Y-81494683D01*
X101096847Y-81494683D02*
X101049228Y-81589921D01*
X101049228Y-81589921D02*
X100953990Y-81637540D01*
X100953990Y-81637540D02*
X100430180Y-81637540D01*
X101430180Y-82018493D02*
X101430180Y-82637540D01*
X101430180Y-82637540D02*
X101049228Y-82304207D01*
X101049228Y-82304207D02*
X101049228Y-82447064D01*
X101049228Y-82447064D02*
X101001609Y-82542302D01*
X101001609Y-82542302D02*
X100953990Y-82589921D01*
X100953990Y-82589921D02*
X100858752Y-82637540D01*
X100858752Y-82637540D02*
X100620657Y-82637540D01*
X100620657Y-82637540D02*
X100525419Y-82589921D01*
X100525419Y-82589921D02*
X100477800Y-82542302D01*
X100477800Y-82542302D02*
X100430180Y-82447064D01*
X100430180Y-82447064D02*
X100430180Y-82161350D01*
X100430180Y-82161350D02*
X100477800Y-82066112D01*
X100477800Y-82066112D02*
X100525419Y-82018493D01*
X100430180Y-76932779D02*
X101430180Y-76932779D01*
X101096847Y-77408969D02*
X100430180Y-77408969D01*
X101001609Y-77408969D02*
X101049228Y-77456588D01*
X101049228Y-77456588D02*
X101096847Y-77551826D01*
X101096847Y-77551826D02*
X101096847Y-77694683D01*
X101096847Y-77694683D02*
X101049228Y-77789921D01*
X101049228Y-77789921D02*
X100953990Y-77837540D01*
X100953990Y-77837540D02*
X100430180Y-77837540D01*
X101334942Y-78266112D02*
X101382561Y-78313731D01*
X101382561Y-78313731D02*
X101430180Y-78408969D01*
X101430180Y-78408969D02*
X101430180Y-78647064D01*
X101430180Y-78647064D02*
X101382561Y-78742302D01*
X101382561Y-78742302D02*
X101334942Y-78789921D01*
X101334942Y-78789921D02*
X101239704Y-78837540D01*
X101239704Y-78837540D02*
X101144466Y-78837540D01*
X101144466Y-78837540D02*
X101001609Y-78789921D01*
X101001609Y-78789921D02*
X100430180Y-78218493D01*
X100430180Y-78218493D02*
X100430180Y-78837540D01*
X117569819Y-87663220D02*
X116569819Y-87663220D01*
X116569819Y-87663220D02*
X116569819Y-87425125D01*
X116569819Y-87425125D02*
X116617438Y-87282268D01*
X116617438Y-87282268D02*
X116712676Y-87187030D01*
X116712676Y-87187030D02*
X116807914Y-87139411D01*
X116807914Y-87139411D02*
X116998390Y-87091792D01*
X116998390Y-87091792D02*
X117141247Y-87091792D01*
X117141247Y-87091792D02*
X117331723Y-87139411D01*
X117331723Y-87139411D02*
X117426961Y-87187030D01*
X117426961Y-87187030D02*
X117522200Y-87282268D01*
X117522200Y-87282268D02*
X117569819Y-87425125D01*
X117569819Y-87425125D02*
X117569819Y-87663220D01*
X117569819Y-86520363D02*
X117522200Y-86615601D01*
X117522200Y-86615601D02*
X117474580Y-86663220D01*
X117474580Y-86663220D02*
X117379342Y-86710839D01*
X117379342Y-86710839D02*
X117093628Y-86710839D01*
X117093628Y-86710839D02*
X116998390Y-86663220D01*
X116998390Y-86663220D02*
X116950771Y-86615601D01*
X116950771Y-86615601D02*
X116903152Y-86520363D01*
X116903152Y-86520363D02*
X116903152Y-86377506D01*
X116903152Y-86377506D02*
X116950771Y-86282268D01*
X116950771Y-86282268D02*
X116998390Y-86234649D01*
X116998390Y-86234649D02*
X117093628Y-86187030D01*
X117093628Y-86187030D02*
X117379342Y-86187030D01*
X117379342Y-86187030D02*
X117474580Y-86234649D01*
X117474580Y-86234649D02*
X117522200Y-86282268D01*
X117522200Y-86282268D02*
X117569819Y-86377506D01*
X117569819Y-86377506D02*
X117569819Y-86520363D01*
X116903152Y-85758458D02*
X117569819Y-85758458D01*
X116998390Y-85758458D02*
X116950771Y-85710839D01*
X116950771Y-85710839D02*
X116903152Y-85615601D01*
X116903152Y-85615601D02*
X116903152Y-85472744D01*
X116903152Y-85472744D02*
X116950771Y-85377506D01*
X116950771Y-85377506D02*
X117046009Y-85329887D01*
X117046009Y-85329887D02*
X117569819Y-85329887D01*
X117569819Y-84853696D02*
X116569819Y-84853696D01*
X117188866Y-84758458D02*
X117569819Y-84472744D01*
X116903152Y-84472744D02*
X117284104Y-84853696D01*
X117522200Y-83663220D02*
X117569819Y-83758458D01*
X117569819Y-83758458D02*
X117569819Y-83948934D01*
X117569819Y-83948934D02*
X117522200Y-84044172D01*
X117522200Y-84044172D02*
X117426961Y-84091791D01*
X117426961Y-84091791D02*
X117046009Y-84091791D01*
X117046009Y-84091791D02*
X116950771Y-84044172D01*
X116950771Y-84044172D02*
X116903152Y-83948934D01*
X116903152Y-83948934D02*
X116903152Y-83758458D01*
X116903152Y-83758458D02*
X116950771Y-83663220D01*
X116950771Y-83663220D02*
X117046009Y-83615601D01*
X117046009Y-83615601D02*
X117141247Y-83615601D01*
X117141247Y-83615601D02*
X117236485Y-84091791D01*
X116903152Y-83282267D02*
X117569819Y-83044172D01*
X116903152Y-82806077D02*
X117569819Y-83044172D01*
X117569819Y-83044172D02*
X117807914Y-83139410D01*
X117807914Y-83139410D02*
X117855533Y-83187029D01*
X117855533Y-83187029D02*
X117903152Y-83282267D01*
X117569819Y-82425124D02*
X116569819Y-82425124D01*
X117569819Y-81996553D02*
X117046009Y-81996553D01*
X117046009Y-81996553D02*
X116950771Y-82044172D01*
X116950771Y-82044172D02*
X116903152Y-82139410D01*
X116903152Y-82139410D02*
X116903152Y-82282267D01*
X116903152Y-82282267D02*
X116950771Y-82377505D01*
X116950771Y-82377505D02*
X116998390Y-82425124D01*
X117569819Y-81091791D02*
X117046009Y-81091791D01*
X117046009Y-81091791D02*
X116950771Y-81139410D01*
X116950771Y-81139410D02*
X116903152Y-81234648D01*
X116903152Y-81234648D02*
X116903152Y-81425124D01*
X116903152Y-81425124D02*
X116950771Y-81520362D01*
X117522200Y-81091791D02*
X117569819Y-81187029D01*
X117569819Y-81187029D02*
X117569819Y-81425124D01*
X117569819Y-81425124D02*
X117522200Y-81520362D01*
X117522200Y-81520362D02*
X117426961Y-81567981D01*
X117426961Y-81567981D02*
X117331723Y-81567981D01*
X117331723Y-81567981D02*
X117236485Y-81520362D01*
X117236485Y-81520362D02*
X117188866Y-81425124D01*
X117188866Y-81425124D02*
X117188866Y-81187029D01*
X117188866Y-81187029D02*
X117141247Y-81091791D01*
X116903152Y-80758457D02*
X116903152Y-80377505D01*
X116569819Y-80615600D02*
X117426961Y-80615600D01*
X117426961Y-80615600D02*
X117522200Y-80567981D01*
X117522200Y-80567981D02*
X117569819Y-80472743D01*
X117569819Y-80472743D02*
X117569819Y-80377505D01*
X116569819Y-79425123D02*
X117569819Y-79091790D01*
X117569819Y-79091790D02*
X116569819Y-78758457D01*
X116569819Y-78234647D02*
X116569819Y-78139409D01*
X116569819Y-78139409D02*
X116617438Y-78044171D01*
X116617438Y-78044171D02*
X116665057Y-77996552D01*
X116665057Y-77996552D02*
X116760295Y-77948933D01*
X116760295Y-77948933D02*
X116950771Y-77901314D01*
X116950771Y-77901314D02*
X117188866Y-77901314D01*
X117188866Y-77901314D02*
X117379342Y-77948933D01*
X117379342Y-77948933D02*
X117474580Y-77996552D01*
X117474580Y-77996552D02*
X117522200Y-78044171D01*
X117522200Y-78044171D02*
X117569819Y-78139409D01*
X117569819Y-78139409D02*
X117569819Y-78234647D01*
X117569819Y-78234647D02*
X117522200Y-78329885D01*
X117522200Y-78329885D02*
X117474580Y-78377504D01*
X117474580Y-78377504D02*
X117379342Y-78425123D01*
X117379342Y-78425123D02*
X117188866Y-78472742D01*
X117188866Y-78472742D02*
X116950771Y-78472742D01*
X116950771Y-78472742D02*
X116760295Y-78425123D01*
X116760295Y-78425123D02*
X116665057Y-78377504D01*
X116665057Y-78377504D02*
X116617438Y-78329885D01*
X116617438Y-78329885D02*
X116569819Y-78234647D01*
X117474580Y-77472742D02*
X117522200Y-77425123D01*
X117522200Y-77425123D02*
X117569819Y-77472742D01*
X117569819Y-77472742D02*
X117522200Y-77520361D01*
X117522200Y-77520361D02*
X117474580Y-77472742D01*
X117474580Y-77472742D02*
X117569819Y-77472742D01*
X116665057Y-77044171D02*
X116617438Y-76996552D01*
X116617438Y-76996552D02*
X116569819Y-76901314D01*
X116569819Y-76901314D02*
X116569819Y-76663219D01*
X116569819Y-76663219D02*
X116617438Y-76567981D01*
X116617438Y-76567981D02*
X116665057Y-76520362D01*
X116665057Y-76520362D02*
X116760295Y-76472743D01*
X116760295Y-76472743D02*
X116855533Y-76472743D01*
X116855533Y-76472743D02*
X116998390Y-76520362D01*
X116998390Y-76520362D02*
X117569819Y-77091790D01*
X117569819Y-77091790D02*
X117569819Y-76472743D01*
D12*
X108902568Y-99583666D02*
X109664473Y-99583666D01*
D11*
X100530180Y-73232779D02*
X101530180Y-73232779D01*
X101196847Y-73708969D02*
X100530180Y-73708969D01*
X101101609Y-73708969D02*
X101149228Y-73756588D01*
X101149228Y-73756588D02*
X101196847Y-73851826D01*
X101196847Y-73851826D02*
X101196847Y-73994683D01*
X101196847Y-73994683D02*
X101149228Y-74089921D01*
X101149228Y-74089921D02*
X101053990Y-74137540D01*
X101053990Y-74137540D02*
X100530180Y-74137540D01*
X100530180Y-75137540D02*
X100530180Y-74566112D01*
X100530180Y-74851826D02*
X101530180Y-74851826D01*
X101530180Y-74851826D02*
X101387323Y-74756588D01*
X101387323Y-74756588D02*
X101292085Y-74661350D01*
X101292085Y-74661350D02*
X101244466Y-74566112D01*
D10*
X131236266Y-63435326D02*
X131236266Y-62673422D01*
X131236266Y-60673421D02*
X131236266Y-59911517D01*
X131617219Y-60292469D02*
X130855314Y-60292469D01*
X131569600Y-58721040D02*
X131617219Y-58578183D01*
X131617219Y-58578183D02*
X131617219Y-58340088D01*
X131617219Y-58340088D02*
X131569600Y-58244850D01*
X131569600Y-58244850D02*
X131521980Y-58197231D01*
X131521980Y-58197231D02*
X131426742Y-58149612D01*
X131426742Y-58149612D02*
X131331504Y-58149612D01*
X131331504Y-58149612D02*
X131236266Y-58197231D01*
X131236266Y-58197231D02*
X131188647Y-58244850D01*
X131188647Y-58244850D02*
X131141028Y-58340088D01*
X131141028Y-58340088D02*
X131093409Y-58530564D01*
X131093409Y-58530564D02*
X131045790Y-58625802D01*
X131045790Y-58625802D02*
X130998171Y-58673421D01*
X130998171Y-58673421D02*
X130902933Y-58721040D01*
X130902933Y-58721040D02*
X130807695Y-58721040D01*
X130807695Y-58721040D02*
X130712457Y-58673421D01*
X130712457Y-58673421D02*
X130664838Y-58625802D01*
X130664838Y-58625802D02*
X130617219Y-58530564D01*
X130617219Y-58530564D02*
X130617219Y-58292469D01*
X130617219Y-58292469D02*
X130664838Y-58149612D01*
X131521980Y-57149612D02*
X131569600Y-57197231D01*
X131569600Y-57197231D02*
X131617219Y-57340088D01*
X131617219Y-57340088D02*
X131617219Y-57435326D01*
X131617219Y-57435326D02*
X131569600Y-57578183D01*
X131569600Y-57578183D02*
X131474361Y-57673421D01*
X131474361Y-57673421D02*
X131379123Y-57721040D01*
X131379123Y-57721040D02*
X131188647Y-57768659D01*
X131188647Y-57768659D02*
X131045790Y-57768659D01*
X131045790Y-57768659D02*
X130855314Y-57721040D01*
X130855314Y-57721040D02*
X130760076Y-57673421D01*
X130760076Y-57673421D02*
X130664838Y-57578183D01*
X130664838Y-57578183D02*
X130617219Y-57435326D01*
X130617219Y-57435326D02*
X130617219Y-57340088D01*
X130617219Y-57340088D02*
X130664838Y-57197231D01*
X130664838Y-57197231D02*
X130712457Y-57149612D01*
X131617219Y-56244850D02*
X131617219Y-56721040D01*
X131617219Y-56721040D02*
X130617219Y-56721040D01*
X131569600Y-55197230D02*
X131617219Y-55054373D01*
X131617219Y-55054373D02*
X131617219Y-54816278D01*
X131617219Y-54816278D02*
X131569600Y-54721040D01*
X131569600Y-54721040D02*
X131521980Y-54673421D01*
X131521980Y-54673421D02*
X131426742Y-54625802D01*
X131426742Y-54625802D02*
X131331504Y-54625802D01*
X131331504Y-54625802D02*
X131236266Y-54673421D01*
X131236266Y-54673421D02*
X131188647Y-54721040D01*
X131188647Y-54721040D02*
X131141028Y-54816278D01*
X131141028Y-54816278D02*
X131093409Y-55006754D01*
X131093409Y-55006754D02*
X131045790Y-55101992D01*
X131045790Y-55101992D02*
X130998171Y-55149611D01*
X130998171Y-55149611D02*
X130902933Y-55197230D01*
X130902933Y-55197230D02*
X130807695Y-55197230D01*
X130807695Y-55197230D02*
X130712457Y-55149611D01*
X130712457Y-55149611D02*
X130664838Y-55101992D01*
X130664838Y-55101992D02*
X130617219Y-55006754D01*
X130617219Y-55006754D02*
X130617219Y-54768659D01*
X130617219Y-54768659D02*
X130664838Y-54625802D01*
X131617219Y-54197230D02*
X130617219Y-54197230D01*
X130617219Y-54197230D02*
X130617219Y-53959135D01*
X130617219Y-53959135D02*
X130664838Y-53816278D01*
X130664838Y-53816278D02*
X130760076Y-53721040D01*
X130760076Y-53721040D02*
X130855314Y-53673421D01*
X130855314Y-53673421D02*
X131045790Y-53625802D01*
X131045790Y-53625802D02*
X131188647Y-53625802D01*
X131188647Y-53625802D02*
X131379123Y-53673421D01*
X131379123Y-53673421D02*
X131474361Y-53721040D01*
X131474361Y-53721040D02*
X131569600Y-53816278D01*
X131569600Y-53816278D02*
X131617219Y-53959135D01*
X131617219Y-53959135D02*
X131617219Y-54197230D01*
X131331504Y-53244849D02*
X131331504Y-52768659D01*
X131617219Y-53340087D02*
X130617219Y-53006754D01*
X130617219Y-53006754D02*
X131617219Y-52673421D01*
D11*
X126900428Y-51077819D02*
X127090904Y-51077819D01*
X127090904Y-51077819D02*
X127186142Y-51125438D01*
X127186142Y-51125438D02*
X127281380Y-51220676D01*
X127281380Y-51220676D02*
X127328999Y-51411152D01*
X127328999Y-51411152D02*
X127328999Y-51744485D01*
X127328999Y-51744485D02*
X127281380Y-51934961D01*
X127281380Y-51934961D02*
X127186142Y-52030200D01*
X127186142Y-52030200D02*
X127090904Y-52077819D01*
X127090904Y-52077819D02*
X126900428Y-52077819D01*
X126900428Y-52077819D02*
X126805190Y-52030200D01*
X126805190Y-52030200D02*
X126709952Y-51934961D01*
X126709952Y-51934961D02*
X126662333Y-51744485D01*
X126662333Y-51744485D02*
X126662333Y-51411152D01*
X126662333Y-51411152D02*
X126709952Y-51220676D01*
X126709952Y-51220676D02*
X126805190Y-51125438D01*
X126805190Y-51125438D02*
X126900428Y-51077819D01*
X128233761Y-52077819D02*
X127757571Y-52077819D01*
X127757571Y-52077819D02*
X127757571Y-51077819D01*
X128567095Y-51554009D02*
X128900428Y-51554009D01*
X129043285Y-52077819D02*
X128567095Y-52077819D01*
X128567095Y-52077819D02*
X128567095Y-51077819D01*
X128567095Y-51077819D02*
X129043285Y-51077819D01*
X129471857Y-52077819D02*
X129471857Y-51077819D01*
X129471857Y-51077819D02*
X129709952Y-51077819D01*
X129709952Y-51077819D02*
X129852809Y-51125438D01*
X129852809Y-51125438D02*
X129948047Y-51220676D01*
X129948047Y-51220676D02*
X129995666Y-51315914D01*
X129995666Y-51315914D02*
X130043285Y-51506390D01*
X130043285Y-51506390D02*
X130043285Y-51649247D01*
X130043285Y-51649247D02*
X129995666Y-51839723D01*
X129995666Y-51839723D02*
X129948047Y-51934961D01*
X129948047Y-51934961D02*
X129852809Y-52030200D01*
X129852809Y-52030200D02*
X129709952Y-52077819D01*
X129709952Y-52077819D02*
X129471857Y-52077819D01*
X130995666Y-52077819D02*
X130424238Y-52077819D01*
X130709952Y-52077819D02*
X130709952Y-51077819D01*
X130709952Y-51077819D02*
X130614714Y-51220676D01*
X130614714Y-51220676D02*
X130519476Y-51315914D01*
X130519476Y-51315914D02*
X130424238Y-51363533D01*
D13*
X101972001Y-88129000D02*
X101972001Y-90789000D01*
X107111999Y-88129000D02*
X101972001Y-88129000D01*
X107111999Y-88129000D02*
X107111999Y-90789000D01*
X107111999Y-90789000D02*
X101972001Y-90789000D01*
X108382000Y-88129000D02*
X109712000Y-88129000D01*
X109712000Y-88129000D02*
X109712000Y-89459000D01*
X108068000Y-99044000D02*
X108068000Y-97714000D01*
X109398000Y-99044000D02*
X108068000Y-99044000D01*
X110668001Y-96384000D02*
X118348000Y-96384000D01*
X110668001Y-99044000D02*
X110668001Y-96384000D01*
X110668001Y-99044000D02*
X118348000Y-99044000D01*
X118348000Y-99044000D02*
X118348000Y-96384000D01*
X111370000Y-85770000D02*
X112700000Y-85770000D01*
X111370000Y-87100000D02*
X111370000Y-85770000D01*
X111370000Y-88370000D02*
X111370000Y-90970000D01*
X111370000Y-88370000D02*
X114030000Y-88370000D01*
X111370000Y-90970000D02*
X114030000Y-90970000D01*
X114030000Y-88370000D02*
X114030000Y-90970000D01*
X101957001Y-72650000D02*
X101957001Y-75310000D01*
X107096999Y-72650000D02*
X101957001Y-72650000D01*
X107096999Y-72650000D02*
X107096999Y-75310000D01*
X107096999Y-75310000D02*
X101957001Y-75310000D01*
X108367000Y-72650000D02*
X109697000Y-72650000D01*
X109697000Y-72650000D02*
X109697000Y-73980000D01*
X101957002Y-76460000D02*
X101957002Y-79120000D01*
X107097000Y-76460000D02*
X101957002Y-76460000D01*
X107097000Y-76460000D02*
X107097000Y-79120000D01*
X107097000Y-79120000D02*
X101957002Y-79120000D01*
X108367001Y-76460000D02*
X109697001Y-76460000D01*
X109697001Y-76460000D02*
X109697001Y-77790000D01*
X127499000Y-60757000D02*
X127499000Y-53077000D01*
X130159000Y-53077000D02*
X127499000Y-53077000D01*
X130159000Y-60757000D02*
X127499000Y-60757000D01*
X130159000Y-60757000D02*
X130159000Y-53077000D01*
X130159000Y-62027000D02*
X130159000Y-63357000D01*
X130159000Y-63357000D02*
X128829000Y-63357000D01*
X108068000Y-95283000D02*
X108068000Y-93953000D01*
X109398000Y-95283000D02*
X108068000Y-95283000D01*
X110668001Y-92623000D02*
X118348000Y-92623000D01*
X110668001Y-95283000D02*
X110668001Y-92623000D01*
X110668001Y-95283000D02*
X118348000Y-95283000D01*
X118348000Y-95283000D02*
X118348000Y-92623000D01*
X101957001Y-80270000D02*
X101957001Y-82930000D01*
X107096999Y-80270000D02*
X101957001Y-80270000D01*
X107096999Y-80270000D02*
X107096999Y-82930000D01*
X107096999Y-82930000D02*
X101957001Y-82930000D01*
X108367000Y-80270000D02*
X109697000Y-80270000D01*
X109697000Y-80270000D02*
X109697000Y-81600000D01*
X111270000Y-80310000D02*
X111270000Y-72630000D01*
X113930000Y-72630000D02*
X111270000Y-72630000D01*
X113930000Y-80310000D02*
X111270000Y-80310000D01*
X113930000Y-80310000D02*
X113930000Y-72630000D01*
X113930000Y-81580000D02*
X113930000Y-82910000D01*
X113930000Y-82910000D02*
X112600000Y-82910000D01*
X101957001Y-84319000D02*
X101957001Y-86979000D01*
X107096999Y-84319000D02*
X101957001Y-84319000D01*
X107096999Y-84319000D02*
X107096999Y-86979000D01*
X107096999Y-86979000D02*
X101957001Y-86979000D01*
X108367000Y-84319000D02*
X109697000Y-84319000D01*
X109697000Y-84319000D02*
X109697000Y-85649000D01*
M02*
