G04 #@! TF.GenerationSoftware,KiCad,Pcbnew,8.0.2*
G04 #@! TF.CreationDate,2024-07-07T11:48:23-07:00*
G04 #@! TF.ProjectId,DonkeyHat,446f6e6b-6579-4486-9174-2e6b69636164,rev?*
G04 #@! TF.SameCoordinates,Original*
G04 #@! TF.FileFunction,Copper,L2,Bot*
G04 #@! TF.FilePolarity,Positive*
%FSLAX46Y46*%
G04 Gerber Fmt 4.6, Leading zero omitted, Abs format (unit mm)*
G04 Created by KiCad (PCBNEW 8.0.2) date 2024-07-07 11:48:23*
%MOMM*%
%LPD*%
G01*
G04 APERTURE LIST*
G04 #@! TA.AperFunction,Conductor*
%ADD10C,0.200000*%
G04 #@! TD*
G04 #@! TA.AperFunction,ComponentPad*
%ADD11O,1.500000X2.500000*%
G04 #@! TD*
G04 #@! TA.AperFunction,ComponentPad*
%ADD12O,2.500000X1.500000*%
G04 #@! TD*
G04 #@! TA.AperFunction,ComponentPad*
%ADD13R,1.700000X1.700000*%
G04 #@! TD*
G04 #@! TA.AperFunction,ComponentPad*
%ADD14O,1.700000X1.700000*%
G04 #@! TD*
G04 #@! TA.AperFunction,ViaPad*
%ADD15C,0.900000*%
G04 #@! TD*
G04 #@! TA.AperFunction,Conductor*
%ADD16C,0.500000*%
G04 #@! TD*
G04 APERTURE END LIST*
D10*
X115000000Y-74900000D02*
X115600000Y-73600000D01*
D11*
X102980000Y-53300000D03*
X105520000Y-53300000D03*
X108060000Y-53300000D03*
X110600000Y-53300000D03*
X113140000Y-53300000D03*
X115680000Y-53300000D03*
X118220000Y-53300000D03*
X120760000Y-53300000D03*
X123300000Y-53300000D03*
D12*
X123800000Y-56340000D03*
X123800000Y-58880000D03*
X123800000Y-61420000D03*
X123800000Y-63960000D03*
X123800000Y-66500000D03*
D11*
X123300000Y-69540000D03*
X120760000Y-69540000D03*
X118220000Y-69540000D03*
X115680000Y-69540000D03*
X113140000Y-69540000D03*
X110600000Y-69540000D03*
X108060000Y-69540000D03*
X105520000Y-69540000D03*
X102980000Y-69540000D03*
D13*
X108382000Y-89459000D03*
D14*
X105842000Y-89459000D03*
X103302001Y-89459000D03*
D13*
X109398000Y-97714000D03*
D14*
X111938000Y-97714000D03*
X114477999Y-97714000D03*
X117018000Y-97714000D03*
D13*
X112700000Y-87100000D03*
D14*
X112700000Y-89640000D03*
D13*
X108367000Y-73980000D03*
D14*
X105827000Y-73980000D03*
X103287001Y-73980000D03*
D13*
X108367001Y-77790000D03*
D14*
X105827001Y-77790000D03*
X103287002Y-77790000D03*
D13*
X128829000Y-62027000D03*
D14*
X128829000Y-59487000D03*
X128829000Y-56947000D03*
X128829000Y-54407000D03*
D13*
X109398000Y-93953000D03*
D14*
X111938000Y-93953000D03*
X114477999Y-93953000D03*
X117018000Y-93953000D03*
D13*
X108367000Y-81600000D03*
D14*
X105827000Y-81600000D03*
X103287001Y-81600000D03*
D13*
X112600000Y-81580000D03*
D14*
X112600000Y-79040000D03*
X112600000Y-76500000D03*
X112600000Y-73960000D03*
D13*
X108367000Y-85649000D03*
D14*
X105827000Y-85649000D03*
X103287001Y-85649000D03*
D13*
X108370000Y-48770000D03*
D14*
X108370000Y-46230000D03*
X110910000Y-48770000D03*
X110910000Y-46230000D03*
X113450000Y-48770000D03*
X113450000Y-46230000D03*
X115990000Y-48770000D03*
X115990000Y-46230000D03*
X118530000Y-48770000D03*
X118530000Y-46230000D03*
X121070000Y-48770000D03*
X121070000Y-46230000D03*
X123610000Y-48770000D03*
X123610000Y-46230000D03*
X126150000Y-48770000D03*
X126150000Y-46230000D03*
X128690000Y-48770000D03*
X128690000Y-46230000D03*
X131230000Y-48770000D03*
X131230000Y-46230000D03*
X133770000Y-48770000D03*
X133770000Y-46230000D03*
X136310000Y-48770000D03*
X136310000Y-46230000D03*
X138850000Y-48770000D03*
X138850000Y-46230000D03*
X141390000Y-48770000D03*
X141390000Y-46230000D03*
X143930000Y-48770000D03*
X143930000Y-46230000D03*
X146470000Y-48770000D03*
X146470000Y-46230000D03*
X149010000Y-48770000D03*
X149010000Y-46230000D03*
X151550000Y-48770000D03*
X151550000Y-46230000D03*
X154090000Y-48770000D03*
X154090000Y-46230000D03*
X156630000Y-48770000D03*
X156630000Y-46230000D03*
D15*
X116200000Y-73000000D03*
X128100000Y-64500000D03*
X130800000Y-65500000D03*
X128494669Y-65744669D03*
X126000000Y-67700000D03*
X126300000Y-57400000D03*
X116500000Y-82067999D03*
X115230382Y-72250000D03*
X112100000Y-71600000D03*
D10*
X127600000Y-60798000D02*
X128829000Y-62027000D01*
X127600000Y-55400000D02*
X127600000Y-60798000D01*
X123400000Y-51200000D02*
X127600000Y-55400000D01*
X120960000Y-51200000D02*
X123400000Y-51200000D01*
X118530000Y-48770000D02*
X120960000Y-51200000D01*
X115600000Y-73600000D02*
X116200000Y-73000000D01*
X126400000Y-66500000D02*
X123300000Y-66500000D01*
X128494669Y-65744669D02*
X127155331Y-65744669D01*
X127155331Y-65744669D02*
X126400000Y-66500000D01*
X128100000Y-64600000D02*
X127900000Y-64800000D01*
X128100000Y-64500000D02*
X128100000Y-64600000D01*
X128100000Y-64500000D02*
X127560000Y-63960000D01*
X127560000Y-63960000D02*
X123300000Y-63960000D01*
X129400000Y-62598000D02*
X128829000Y-62027000D01*
X129400000Y-65900000D02*
X129400000Y-62598000D01*
X128300000Y-67000000D02*
X129400000Y-65900000D01*
X126310661Y-66950000D02*
X126360661Y-67000000D01*
X124830000Y-67570000D02*
X125450000Y-66950000D01*
X107430000Y-67570000D02*
X124830000Y-67570000D01*
X125450000Y-66950000D02*
X126310661Y-66950000D01*
X105440000Y-69560000D02*
X107430000Y-67570000D01*
X126360661Y-67000000D02*
X128300000Y-67000000D01*
X105440000Y-71827001D02*
X105440000Y-69560000D01*
X103287001Y-73980000D02*
X105440000Y-71827001D01*
X129979000Y-63177000D02*
X129979000Y-60637000D01*
X129979000Y-60637000D02*
X128829000Y-59487000D01*
X126400000Y-69600000D02*
X129900000Y-66100000D01*
X123434314Y-72565685D02*
X126400000Y-69600000D01*
X123200000Y-72800000D02*
X123434314Y-72565685D01*
X118096296Y-72800000D02*
X123200000Y-72800000D01*
X116500000Y-74396296D02*
X118096296Y-72800000D01*
X129900000Y-63256000D02*
X129979000Y-63177000D01*
X129900000Y-66100000D02*
X129900000Y-63256000D01*
X116500000Y-82067999D02*
X116500000Y-74396296D01*
X118220000Y-70280000D02*
X118220000Y-69040000D01*
X115230382Y-72250000D02*
X116250000Y-72250000D01*
X116250000Y-72250000D02*
X118220000Y-70280000D01*
X118168000Y-96564000D02*
X117018000Y-97714000D01*
X118168000Y-73868000D02*
X118168000Y-96564000D01*
X118700000Y-73200000D02*
X118100000Y-73800000D01*
X123365686Y-73200000D02*
X118700000Y-73200000D01*
X130800000Y-65765686D02*
X123365686Y-73200000D01*
X118100000Y-73800000D02*
X118168000Y-73868000D01*
X130800000Y-65500000D02*
X130800000Y-65765686D01*
X126300000Y-56800000D02*
X123300000Y-53800000D01*
X126300000Y-57400000D02*
X126300000Y-56800000D01*
X113300000Y-95130999D02*
X114477999Y-93953000D01*
X113300000Y-97978346D02*
X113300000Y-95130999D01*
X112414346Y-98864000D02*
X113300000Y-97978346D01*
X108248000Y-98864000D02*
X112414346Y-98864000D01*
X101100000Y-55500000D02*
X101100000Y-91716000D01*
X101700000Y-54900000D02*
X101100000Y-55500000D01*
X101100000Y-91716000D02*
X108248000Y-98864000D01*
X119660000Y-54900000D02*
X101700000Y-54900000D01*
X120760000Y-53800000D02*
X119660000Y-54900000D01*
X126000000Y-69434314D02*
X123034314Y-72400000D01*
X126000000Y-67700000D02*
X126000000Y-69434314D01*
X123034314Y-72400000D02*
X119600000Y-72400000D01*
X119600000Y-72400000D02*
X117930610Y-72400000D01*
X114500000Y-93930999D02*
X114477999Y-93953000D01*
X103287001Y-73980000D02*
X103287001Y-89444000D01*
X103302001Y-89459000D02*
X107796001Y-93953000D01*
X109398000Y-92942000D02*
X112700000Y-89640000D01*
X111550000Y-88490000D02*
X111550000Y-82630000D01*
X111550000Y-82630000D02*
X112600000Y-81580000D01*
X107796001Y-93953000D02*
X109398000Y-93953000D01*
X109398000Y-93953000D02*
X109398000Y-92942000D01*
X109398000Y-93953000D02*
X109398000Y-97714000D01*
X112700000Y-89640000D02*
X111550000Y-88490000D01*
X103287001Y-89444000D02*
X103302001Y-89459000D01*
X124760000Y-49246346D02*
X124760000Y-48293654D01*
X114600000Y-47620000D02*
X113450000Y-48770000D01*
X128829000Y-56947000D02*
X129979000Y-55797000D01*
X124086346Y-47620000D02*
X114600000Y-47620000D01*
X129979000Y-53379000D02*
X126520000Y-49920000D01*
X124760000Y-48293654D02*
X124086346Y-47620000D01*
X126520000Y-49920000D02*
X125433654Y-49920000D01*
X125433654Y-49920000D02*
X124760000Y-49246346D01*
X129979000Y-55797000D02*
X129979000Y-53379000D01*
X128690000Y-48770000D02*
X130379000Y-50459000D01*
X112192000Y-97713999D02*
X112446001Y-97968000D01*
X130379000Y-50459000D02*
X130379000Y-57937000D01*
X130379000Y-57937000D02*
X128829000Y-59487000D01*
X120760000Y-69040000D02*
X120724924Y-69040000D01*
X115627999Y-95172001D02*
X114477999Y-96322001D01*
X114477999Y-96322001D02*
X114477999Y-97714000D01*
X114954345Y-74810579D02*
X114954345Y-92803000D01*
X114954345Y-92803000D02*
X115627999Y-93476654D01*
X115627999Y-93476654D02*
X115627999Y-95172001D01*
X115700000Y-92635000D02*
X117018000Y-93953000D01*
X117930610Y-72400000D02*
X115700000Y-74630610D01*
X115700000Y-74630610D02*
X115700000Y-92635000D01*
X110600000Y-69040000D02*
X110600000Y-79367000D01*
X110600000Y-79367000D02*
X108367000Y-81600000D01*
X114630000Y-67990000D02*
X110110000Y-67990000D01*
X110110000Y-67990000D02*
X109110000Y-68990000D01*
X109110000Y-73237000D02*
X108367000Y-73980000D01*
X115680000Y-69040000D02*
X114630000Y-67990000D01*
X109110000Y-68990000D02*
X109110000Y-73237000D01*
X112100000Y-71600000D02*
X111150000Y-72550000D01*
X111150000Y-81450000D02*
X108367000Y-84233000D01*
X108367000Y-84233000D02*
X108367000Y-85649000D01*
X111150000Y-72550000D02*
X111150000Y-81450000D01*
D16*
X105827000Y-73980000D02*
X105827000Y-89444000D01*
X105827000Y-89444000D02*
X105842000Y-89459000D01*
M02*
